<?xml version="1.0" standalone="no"?>
<!DOCTYPE svg PUBLIC "-//W3C//DTD SVG 20010904//EN"
 "http://www.w3.org/TR/2001/REC-SVG-20010904/DTD/svg10.dtd">
<svg version="1.0" xmlns="http://www.w3.org/2000/svg"
 width="500.000000pt" height="500.000000pt" viewBox="0 0 500.000000 500.000000"
 preserveAspectRatio="xMidYMid meet">
<metadata>
Created by potrace 1.14, written by Peter Selinger 2001-2017
</metadata>
<g transform="translate(0.000000,500.000000) scale(0.100000,-0.100000)"
fill="#000000" stroke="none">
<path d="M295 4838 c-33 -11 -93 -53 -112 -78 -7 -8 -22 -34 -33 -56 -21 -42
-21 -42 -21 -2187 0 -1180 3 -2158 7 -2174 17 -72 94 -153 167 -174 20 -6 869
-9 2205 -9 2098 0 2175 0 2215 18 62 28 102 66 131 124 l26 52 0 2140 c0 1444
-3 2153 -10 2178 -17 59 -69 120 -129 151 l-55 27 -2180 -1 c-1494 0 -2190 -4
-2211 -11z"/>
</g>
</svg>
